<svg width="34" height="35" viewBox="0 0 34 35" fill="none" xmlns="http://www.w3.org/2000/svg">
<g clip-path="url(#clip0_243_71)">
<path d="M10.0822 2.69273C10.0448 2.62059 10.022 2.54179 10.0151 2.46082C10.0082 2.37986 10.0173 2.29833 10.0419 2.22088C10.0664 2.14343 10.1061 2.07159 10.1584 2.00946C10.2108 1.94732 10.2749 1.89611 10.347 1.85876C12.5613 0.73277 15.021 0.175537 17.5043 0.237293C19.9876 0.29905 22.4165 0.977855 24.5721 2.21251C24.6428 2.25317 24.7048 2.30743 24.7544 2.37215C24.804 2.43687 24.8403 2.51078 24.8613 2.58962C24.8822 2.66845 24.8873 2.75065 24.8763 2.83146C24.8653 2.91228 24.8384 2.99012 24.7972 3.06049L17.6761 15.2818C17.6217 15.3754 17.5437 15.453 17.4499 15.5069C17.3561 15.5608 17.2497 15.5891 17.1415 15.589H17.1258C17.0149 15.586 16.9069 15.5534 16.8129 15.4946C16.7189 15.4358 16.6423 15.3529 16.5912 15.2545L10.0822 2.69273ZM16.7595 18.8483V18.8471L10.2503 6.28529C10.1747 6.13986 10.0446 6.03024 9.88851 5.98037C9.73238 5.9305 9.56285 5.94442 9.41695 6.0191C7.68218 6.90861 6.14015 8.13195 4.87938 9.61893C3.6186 11.1059 2.6639 12.8272 2.07006 14.6841C1.47622 16.541 1.25494 18.4969 1.41893 20.4395C1.58291 22.3821 2.12892 24.2732 3.02563 26.0043C3.92233 27.7353 5.15207 29.2722 6.64427 30.5268C8.13647 31.7814 9.86175 32.729 11.7211 33.3151C13.5804 33.9012 15.5372 34.1143 17.4791 33.9423C19.421 33.7702 21.3099 33.2164 23.0372 32.3125C23.1822 32.2365 23.2914 32.1062 23.3408 31.9501C23.3902 31.7939 23.3758 31.6246 23.3009 31.479L16.7595 18.8483ZM24.3895 30.7218L24.4391 30.8209C24.5139 30.967 24.6428 31.0781 24.7983 31.1306C24.8621 31.1517 24.9294 31.1601 24.9965 31.1553C25.0944 31.1526 25.1911 31.1316 25.2813 31.0934C25.5068 30.9817 25.726 30.8576 25.9378 30.7218C26.5678 30.3563 27.1683 29.9422 27.7338 29.4832H23.7454L24.3895 30.7218ZM23.1013 28.2445H29.084C29.4686 27.858 29.8246 27.4441 30.1492 27.0059H22.4572L23.1013 28.2445ZM21.8255 25.7673H31.0286C31.2823 25.3696 31.5099 24.9558 31.7099 24.5286H21.1814L21.8255 25.7673ZM20.5373 23.29H32.2549C32.4192 22.8856 32.5599 22.4721 32.676 22.0513H19.8932L20.5373 23.29ZM19.2492 20.8127H32.9857C33.06 20.4039 33.1219 19.9952 33.1591 19.574H18.6174L19.2492 20.8127ZM25.8883 5.15627C25.8187 5.11304 25.7408 5.08515 25.6596 5.07447C25.5784 5.06379 25.4959 5.07056 25.4176 5.09434C25.3374 5.11266 25.2618 5.14744 25.1957 5.19648C25.1296 5.24552 25.0744 5.30775 25.0336 5.37922L24.6992 5.949H27.0898C26.7037 5.66346 26.3027 5.39883 25.8883 5.15627ZM28.5885 7.18764H23.9808L23.2624 8.42628H29.7652C29.3987 7.98967 29.0058 7.57601 28.5885 7.18764ZM30.6942 9.66492H22.5316L21.8131 10.9036H31.4498C31.2263 10.474 30.9738 10.0602 30.6942 9.66492ZM32.0443 12.1422H21.0947L20.3763 13.3808H32.5274C32.3901 12.9591 32.2288 12.5455 32.0443 12.1422ZM32.8742 14.6195H19.6455L18.9271 15.8581H33.0972C33.048 15.4411 32.9735 15.0275 32.8742 14.6195ZM33.221 17.0968H18.2087L17.9114 17.6046C17.8578 17.694 17.8284 17.796 17.8262 17.9002C17.824 18.0045 17.8491 18.1076 17.899 18.1992L17.9734 18.3354H33.2458C33.2582 18.2115 33.2582 18.0753 33.2582 17.9514C33.2582 17.6665 33.2458 17.3817 33.221 17.0968Z" fill="white"/>
<path d="M9.79773 5.40689C9.57069 4.97667 9.03631 4.80987 8.61948 5.06066C5.3196 7.04602 2.85421 10.1819 1.7108 13.8808C0.480431 17.8609 0.881558 22.1668 2.82594 25.8512C4.77031 29.5356 8.09867 32.2966 12.0788 33.527C15.7776 34.6704 19.7578 34.4048 23.259 32.801C23.7013 32.5984 23.8652 32.0631 23.6381 31.6329L16.7179 18.5199L9.79773 5.40689Z" fill="white"/>
</g>
<defs>
<clipPath id="clip0_243_71">
<rect width="32.745" height="34.8351" fill="white" transform="translate(0.731201 -0.319336)"/>
</clipPath>
</defs>
</svg>
